<svg xmlns="http://www.w3.org/2000/svg" width="436.702" height="329.183" viewBox="0 0 436.702 929.183">
  <path id="Tracé_1" data-name="Tracé 1" d="M222.812,431.929-2.044,641.863V928.044h430.7V506.949L288.272,455.786Z" transform="translate(7.544 0.639)" stroke="#fff" stroke-width="1" opacity="0.57"/>
  <path id="Tracé_2" data-name="Tracé 2" d="M294.971,453.8-2.044,847.709v21.872L312.755,463Z" transform="translate(2.544 1.639)" fill="none" stroke="#707070" stroke-width="1"/>
  <path id="Tracé_3" data-name="Tracé 3" d="M428.658,679.987-4.7,227.514,188.675,0,428.658,136.345Z" transform="translate(7.544 0.639)" fill="#222a21" stroke="#fff" stroke-width="1" opacity="0.5"/>
  <g id="logo_eec_1" data-name="logo eec 1" transform="translate(110.794 627.639)">
    <path id="Tracé_4" data-name="Tracé 4" d="M0,146.7H0Z" transform="translate(0 -33.075)" fill="#fff" stroke="#231f20" stroke-miterlimit="10" stroke-width="1"/>
    <path id="Tracé_5" data-name="Tracé 5" d="M392.3,243.474c-14.894-1.882-30.4-15.622-40-37.7-7.8-17.931-10.069-37.6-7.3-54.047-.318-.589-.635-1.177-.953-1.8a15.772,15.772,0,0,1-2.966.271c-11.758,0-21.292-12.656-21.292-28.255a35.032,35.032,0,0,1,3.4-15.32c-.132-.287-.248-.558-.356-.821L224.47,216.6c.209.449.426.891.627,1.34a12.036,12.036,0,0,1,3.423-.488c8.4,0,15.2,8.442,15.2,18.837a21.277,21.277,0,0,1-4.121,12.873l.6.968a328.769,328.769,0,0,1,157.1,3.648Z" transform="translate(-169.501 -105.8)" fill="#fff200"/>
    <path id="Tracé_6" data-name="Tracé 6" d="M322.674,109.057v13.291H295.8v87.662H284.458V122.349H258V109.057h26.458V87.2H295.8v21.857Z" transform="translate(-58.169 -19.66)" fill="#fff" stroke="#d1d3d4" stroke-miterlimit="10" stroke-width="1"/>
    <path id="Tracé_7" data-name="Tracé 7" d="M305.894,214.548a15.274,15.274,0,0,1,13.585-8.086,15.546,15.546,0,0,1,3.942.511V193.434a29.51,29.51,0,0,0-4.175-.294,28.559,28.559,0,0,0-27.953,21.408,26.946,26.946,0,0,0-.108,12.393c2.8,12.486,14.29,21.857,28.046,21.857a30.4,30.4,0,0,0,3.685-.224l0-13a15.7,15.7,0,0,1-3.439.38,15.251,15.251,0,0,1-14.042-9.039l21.222.953v-12.85Z" transform="translate(-184.392 -125.492)" fill="#00a651" stroke="#231f20" stroke-miterlimit="10" stroke-width="3"/>
    <path id="Tracé_8" data-name="Tracé 8" d="M352.337,213.99a15.258,15.258,0,0,1,13.578-8.086,15.645,15.645,0,0,1,3.935.5V192.914a29.677,29.677,0,0,0-4.175-.294,28.57,28.57,0,0,0-27.961,21.408,26.946,26.946,0,0,0-.108,12.393c2.8,12.509,14.306,21.881,28.069,21.881a30.27,30.27,0,0,0,3.677-.224l0-13.059a15.654,15.654,0,0,1-3.439.38,15.235,15.235,0,0,1-14.035-9.039l21.215.953V214.47Z" transform="translate(-194.858 -125.375)" fill="#00a651" stroke="#231f20" stroke-miterlimit="10" stroke-width="3"/>
    <path id="Tracé_9" data-name="Tracé 9" d="M416.516,192.9v13.523a15.653,15.653,0,0,0-12.981,2.4h0A14.778,14.778,0,0,0,399.027,214h.472a15.049,15.049,0,0,0-.163,12.393h-.775a15.251,15.251,0,0,0,14,8.992,14.572,14.572,0,0,0,1.464-.07A13.815,13.815,0,0,0,416,235v13a28.777,28.777,0,0,1-3.679.232c-13.764,0-25.265-9.372-28.069-21.881a26.471,26.471,0,0,1-.666-5.948,26.994,26.994,0,0,1,.775-6.422,28.561,28.561,0,0,1,27.961-21.407A29.486,29.486,0,0,1,416.516,192.9Z" transform="translate(-205.376 -125.363)" fill="#00a651" stroke="#231f20" stroke-miterlimit="10" stroke-width="3"/>
  </g>
  <text id="Eglise_Évangélique_du_Cameroun_" data-name="Eglise Évangélique du Cameroun " transform="translate(67.544 852.639)" fill="#fff" stroke="#fff" stroke-width="1" font-size="24" font-family="SegoeUI-Semibold, Segoe UI" font-weight="600"><tspan x="0" y="0">Eglise Évangélique du Cameroun </tspan></text>
  <text id="YUOPNKÈ_PùEN_-_KRISTO" data-name="YUOPNKÈ
PùEN - KRISTO" transform="translate(212.544 121.639)" fill="#fff" stroke="#fff" stroke-width="1" font-size="55" font-family="SegoeUI-Semibold, Segoe UI" font-weight="600"><tspan x="-124.193" y="0">YUOPNKÈ</tspan><tspan font-size="34"><tspan x="-116.609" y="51">PÙEN - KRISTO</tspan></tspan></text>
  <text id="Cantiques_en_Bamoun" data-name="Cantiques en Bamoun" transform="translate(52.544 301.639)" fill="#fff" stroke="#fff" stroke-width="1" font-size="34" font-family="SegoeUI-Semibold, Segoe UI" font-weight="600"><tspan x="0" y="0">Cantiques en Bamoun</tspan></text>
</svg>
